<mxfile host="app.diagrams.net" agent="Mozilla/5.0 (Windows NT 10.0; Win64; x64) AppleWebKit/537.36 (KHTML, like Gecko) Chrome/134.0.0.0 Safari/537.36" version="26.1.3" pages="3">
  <diagram name="TOBE" id="cgs9fcY_MdLF6vxdl5zY">
    <mxGraphModel dx="2385" dy="1480" grid="0" gridSize="10" guides="1" tooltips="1" connect="1" arrows="1" fold="1" page="1" pageScale="1" pageWidth="827" pageHeight="1169" math="0" shadow="0">
      <root>
        <mxCell id="0" />
        <mxCell id="1" parent="0" />
        <mxCell id="d-VJ-QEy7T55_uepb2rt-17" value="Coletor" style="swimlane;horizontal=0;whiteSpace=wrap;html=1;" parent="1" vertex="1">
          <mxGeometry x="1081" y="977" width="870" height="200" as="geometry" />
        </mxCell>
        <mxCell id="HVkNpmRQjvonwfQjf_y9-4" style="edgeStyle=orthogonalEdgeStyle;rounded=0;orthogonalLoop=1;jettySize=auto;html=1;" parent="d-VJ-QEy7T55_uepb2rt-17" source="d-VJ-QEy7T55_uepb2rt-31" edge="1">
          <mxGeometry relative="1" as="geometry">
            <mxPoint x="280" y="99.99999999999977" as="targetPoint" />
          </mxGeometry>
        </mxCell>
        <mxCell id="d-VJ-QEy7T55_uepb2rt-31" value="Realizar coleta" style="rounded=1;whiteSpace=wrap;html=1;" parent="d-VJ-QEy7T55_uepb2rt-17" vertex="1">
          <mxGeometry x="90" y="70" width="120" height="60" as="geometry" />
        </mxCell>
        <mxCell id="HVkNpmRQjvonwfQjf_y9-8" style="edgeStyle=orthogonalEdgeStyle;rounded=0;orthogonalLoop=1;jettySize=auto;html=1;" parent="d-VJ-QEy7T55_uepb2rt-17" source="HVkNpmRQjvonwfQjf_y9-5" edge="1">
          <mxGeometry relative="1" as="geometry">
            <mxPoint x="460" y="100" as="targetPoint" />
          </mxGeometry>
        </mxCell>
        <mxCell id="HVkNpmRQjvonwfQjf_y9-5" value="coleta finalizada?" style="rhombus;whiteSpace=wrap;html=1;fillColor=#fff2cc;strokeColor=#d6b656;" parent="d-VJ-QEy7T55_uepb2rt-17" vertex="1">
          <mxGeometry x="283" y="60" width="80" height="80" as="geometry" />
        </mxCell>
        <mxCell id="HVkNpmRQjvonwfQjf_y9-11" value="" style="ellipse;whiteSpace=wrap;html=1;aspect=fixed;fillColor=#f8cecc;strokeColor=#b85450;" parent="d-VJ-QEy7T55_uepb2rt-17" vertex="1">
          <mxGeometry x="460" y="88" width="24" height="24" as="geometry" />
        </mxCell>
        <mxCell id="HVkNpmRQjvonwfQjf_y9-7" value="Não" style="text;html=1;align=center;verticalAlign=middle;whiteSpace=wrap;rounded=0;" parent="d-VJ-QEy7T55_uepb2rt-17" vertex="1">
          <mxGeometry x="310" y="140" width="60" height="30" as="geometry" />
        </mxCell>
        <mxCell id="HVkNpmRQjvonwfQjf_y9-9" value="Sim" style="text;html=1;align=center;verticalAlign=middle;resizable=0;points=[];autosize=1;strokeColor=none;fillColor=none;" parent="d-VJ-QEy7T55_uepb2rt-17" vertex="1">
          <mxGeometry x="384" y="70" width="40" height="30" as="geometry" />
        </mxCell>
        <mxCell id="d-VJ-QEy7T55_uepb2rt-18" value="Modelo (Sistema)" style="swimlane;horizontal=0;whiteSpace=wrap;html=1;" parent="1" vertex="1">
          <mxGeometry x="1081" y="1377" width="870" height="200" as="geometry" />
        </mxCell>
        <mxCell id="d-VJ-QEy7T55_uepb2rt-28" value="Gerar rota otimizada de coleta" style="rounded=1;whiteSpace=wrap;html=1;" parent="d-VJ-QEy7T55_uepb2rt-18" vertex="1">
          <mxGeometry x="90" y="70" width="120" height="60" as="geometry" />
        </mxCell>
        <mxCell id="d-VJ-QEy7T55_uepb2rt-21" value="Aplicativo" style="swimlane;horizontal=0;whiteSpace=wrap;html=1;" parent="1" vertex="1">
          <mxGeometry x="88" y="1410" width="870" height="210" as="geometry" />
        </mxCell>
        <mxCell id="fbK9W6iJaRy3xWYXGoXf-3" style="edgeStyle=orthogonalEdgeStyle;rounded=0;orthogonalLoop=1;jettySize=auto;html=1;entryX=0;entryY=0.5;entryDx=0;entryDy=0;" parent="d-VJ-QEy7T55_uepb2rt-21" source="d-VJ-QEy7T55_uepb2rt-53" target="fbK9W6iJaRy3xWYXGoXf-2" edge="1">
          <mxGeometry relative="1" as="geometry" />
        </mxCell>
        <mxCell id="d-VJ-QEy7T55_uepb2rt-53" value="Receber formulário" style="rounded=1;whiteSpace=wrap;html=1;" parent="d-VJ-QEy7T55_uepb2rt-21" vertex="1">
          <mxGeometry x="310" y="91" width="120" height="60" as="geometry" />
        </mxCell>
        <mxCell id="fbK9W6iJaRy3xWYXGoXf-2" value="Verificação de campos e contexto" style="rhombus;whiteSpace=wrap;html=1;fillColor=#fff2cc;strokeColor=#d6b656;" parent="d-VJ-QEy7T55_uepb2rt-21" vertex="1">
          <mxGeometry x="471" y="81" width="80" height="80" as="geometry" />
        </mxCell>
        <mxCell id="fbK9W6iJaRy3xWYXGoXf-9" value="Incoerente" style="text;html=1;align=center;verticalAlign=middle;resizable=0;points=[];autosize=1;strokeColor=none;fillColor=none;" parent="d-VJ-QEy7T55_uepb2rt-21" vertex="1">
          <mxGeometry x="557" y="92" width="75" height="26" as="geometry" />
        </mxCell>
        <mxCell id="d-VJ-QEy7T55_uepb2rt-22" value="Cidadão (Aplicativo)" style="swimlane;horizontal=0;whiteSpace=wrap;html=1;" parent="1" vertex="1">
          <mxGeometry x="88" y="1620" width="870" height="200" as="geometry" />
        </mxCell>
        <mxCell id="d-VJ-QEy7T55_uepb2rt-47" style="edgeStyle=orthogonalEdgeStyle;rounded=0;orthogonalLoop=1;jettySize=auto;html=1;entryX=0;entryY=0.5;entryDx=0;entryDy=0;" parent="d-VJ-QEy7T55_uepb2rt-22" source="d-VJ-QEy7T55_uepb2rt-45" target="d-VJ-QEy7T55_uepb2rt-46" edge="1">
          <mxGeometry relative="1" as="geometry" />
        </mxCell>
        <mxCell id="d-VJ-QEy7T55_uepb2rt-45" value="" style="ellipse;whiteSpace=wrap;html=1;aspect=fixed;fillColor=#d5e8d4;strokeColor=#82b366;" parent="d-VJ-QEy7T55_uepb2rt-22" vertex="1">
          <mxGeometry x="290" y="91" width="40" height="40" as="geometry" />
        </mxCell>
        <mxCell id="d-VJ-QEy7T55_uepb2rt-50" style="edgeStyle=orthogonalEdgeStyle;rounded=0;orthogonalLoop=1;jettySize=auto;html=1;" parent="d-VJ-QEy7T55_uepb2rt-22" source="d-VJ-QEy7T55_uepb2rt-46" edge="1">
          <mxGeometry relative="1" as="geometry">
            <mxPoint x="580" y="111" as="targetPoint" />
          </mxGeometry>
        </mxCell>
        <mxCell id="d-VJ-QEy7T55_uepb2rt-46" value="Acessar o aplicativo (Cidadão)" style="rounded=1;whiteSpace=wrap;html=1;" parent="d-VJ-QEy7T55_uepb2rt-22" vertex="1">
          <mxGeometry x="390" y="81" width="120" height="60" as="geometry" />
        </mxCell>
        <mxCell id="d-VJ-QEy7T55_uepb2rt-51" value="Enviar formulário" style="rounded=1;whiteSpace=wrap;html=1;" parent="d-VJ-QEy7T55_uepb2rt-22" vertex="1">
          <mxGeometry x="580" y="81" width="120" height="60" as="geometry" />
        </mxCell>
        <mxCell id="d-VJ-QEy7T55_uepb2rt-43" value="&lt;font style=&quot;font-size: 16px;&quot;&gt;Coletar lixo&lt;/font&gt;" style="text;html=1;align=center;verticalAlign=middle;whiteSpace=wrap;rounded=0;" parent="1" vertex="1">
          <mxGeometry x="1446" y="927" width="140" height="30" as="geometry" />
        </mxCell>
        <mxCell id="d-VJ-QEy7T55_uepb2rt-44" value="&lt;font style=&quot;font-size: 17px;&quot;&gt;Treinar modelo&lt;/font&gt;" style="text;html=1;align=center;verticalAlign=middle;whiteSpace=wrap;rounded=0;" parent="1" vertex="1">
          <mxGeometry x="443" y="1150" width="142" height="30" as="geometry" />
        </mxCell>
        <mxCell id="d-VJ-QEy7T55_uepb2rt-55" value="Modelo (Sistema)" style="swimlane;horizontal=0;whiteSpace=wrap;html=1;startSize=23;" parent="1" vertex="1">
          <mxGeometry x="88" y="1210" width="870" height="200" as="geometry" />
        </mxCell>
        <mxCell id="d-VJ-QEy7T55_uepb2rt-78" style="edgeStyle=orthogonalEdgeStyle;rounded=0;orthogonalLoop=1;jettySize=auto;html=1;entryX=0;entryY=0.5;entryDx=0;entryDy=0;" parent="d-VJ-QEy7T55_uepb2rt-55" source="d-VJ-QEy7T55_uepb2rt-59" target="d-VJ-QEy7T55_uepb2rt-77" edge="1">
          <mxGeometry relative="1" as="geometry" />
        </mxCell>
        <mxCell id="d-VJ-QEy7T55_uepb2rt-59" value="Treinar modelo" style="rounded=1;whiteSpace=wrap;html=1;" parent="d-VJ-QEy7T55_uepb2rt-55" vertex="1">
          <mxGeometry x="170" y="75" width="120" height="60" as="geometry" />
        </mxCell>
        <mxCell id="d-VJ-QEy7T55_uepb2rt-76" style="edgeStyle=orthogonalEdgeStyle;rounded=0;orthogonalLoop=1;jettySize=auto;html=1;entryX=0;entryY=0.5;entryDx=0;entryDy=0;" parent="d-VJ-QEy7T55_uepb2rt-55" source="d-VJ-QEy7T55_uepb2rt-75" target="d-VJ-QEy7T55_uepb2rt-59" edge="1">
          <mxGeometry relative="1" as="geometry" />
        </mxCell>
        <mxCell id="d-VJ-QEy7T55_uepb2rt-75" value="" style="ellipse;whiteSpace=wrap;html=1;aspect=fixed;fillColor=#d5e8d4;strokeColor=#82b366;" parent="d-VJ-QEy7T55_uepb2rt-55" vertex="1">
          <mxGeometry x="80" y="85" width="40" height="40" as="geometry" />
        </mxCell>
        <mxCell id="d-VJ-QEy7T55_uepb2rt-79" style="edgeStyle=orthogonalEdgeStyle;rounded=0;orthogonalLoop=1;jettySize=auto;html=1;entryX=0;entryY=0.5;entryDx=0;entryDy=0;" parent="d-VJ-QEy7T55_uepb2rt-55" source="d-VJ-QEy7T55_uepb2rt-77" target="d-VJ-QEy7T55_uepb2rt-57" edge="1">
          <mxGeometry relative="1" as="geometry" />
        </mxCell>
        <mxCell id="dIDU0ldeqhqFMtYOlS6n-1" style="edgeStyle=orthogonalEdgeStyle;rounded=0;orthogonalLoop=1;jettySize=auto;html=1;entryX=0.5;entryY=1;entryDx=0;entryDy=0;" parent="d-VJ-QEy7T55_uepb2rt-55" source="d-VJ-QEy7T55_uepb2rt-77" target="d-VJ-QEy7T55_uepb2rt-59" edge="1">
          <mxGeometry relative="1" as="geometry">
            <Array as="points">
              <mxPoint x="350" y="165" />
              <mxPoint x="230" y="165" />
            </Array>
          </mxGeometry>
        </mxCell>
        <mxCell id="d-VJ-QEy7T55_uepb2rt-77" value="Formulario?" style="rhombus;whiteSpace=wrap;html=1;fillColor=#fff2cc;strokeColor=#d6b656;" parent="d-VJ-QEy7T55_uepb2rt-55" vertex="1">
          <mxGeometry x="330" y="65" width="80" height="80" as="geometry" />
        </mxCell>
        <mxCell id="d-VJ-QEy7T55_uepb2rt-80" style="edgeStyle=orthogonalEdgeStyle;rounded=0;orthogonalLoop=1;jettySize=auto;html=1;entryX=0.5;entryY=0;entryDx=0;entryDy=0;" parent="d-VJ-QEy7T55_uepb2rt-55" source="d-VJ-QEy7T55_uepb2rt-57" target="d-VJ-QEy7T55_uepb2rt-59" edge="1">
          <mxGeometry relative="1" as="geometry">
            <Array as="points">
              <mxPoint x="540" y="55" />
              <mxPoint x="230" y="55" />
            </Array>
          </mxGeometry>
        </mxCell>
        <mxCell id="d-VJ-QEy7T55_uepb2rt-57" value="Tratar dados do cliente" style="rounded=1;whiteSpace=wrap;html=1;" parent="d-VJ-QEy7T55_uepb2rt-55" vertex="1">
          <mxGeometry x="480" y="80" width="120" height="50" as="geometry" />
        </mxCell>
        <mxCell id="dIDU0ldeqhqFMtYOlS6n-2" value="Não" style="text;html=1;align=center;verticalAlign=middle;whiteSpace=wrap;rounded=0;" parent="d-VJ-QEy7T55_uepb2rt-55" vertex="1">
          <mxGeometry x="230" y="170" width="60" height="30" as="geometry" />
        </mxCell>
        <mxCell id="dIDU0ldeqhqFMtYOlS6n-3" value="Sim" style="text;html=1;align=center;verticalAlign=middle;whiteSpace=wrap;rounded=0;" parent="d-VJ-QEy7T55_uepb2rt-55" vertex="1">
          <mxGeometry x="305" y="31" width="60" height="30" as="geometry" />
        </mxCell>
        <mxCell id="fbK9W6iJaRy3xWYXGoXf-1" style="edgeStyle=orthogonalEdgeStyle;rounded=0;orthogonalLoop=1;jettySize=auto;html=1;entryX=0.5;entryY=1;entryDx=0;entryDy=0;" parent="1" source="d-VJ-QEy7T55_uepb2rt-63" target="d-VJ-QEy7T55_uepb2rt-67" edge="1">
          <mxGeometry relative="1" as="geometry">
            <Array as="points">
              <mxPoint x="694.5" y="1064" />
              <mxPoint x="384.5" y="1064" />
            </Array>
          </mxGeometry>
        </mxCell>
        <mxCell id="d-VJ-QEy7T55_uepb2rt-63" value="Coletar lixo" style="rounded=1;whiteSpace=wrap;html=1;" parent="1" vertex="1">
          <mxGeometry x="634.5" y="984" width="120" height="60" as="geometry" />
        </mxCell>
        <mxCell id="d-VJ-QEy7T55_uepb2rt-65" style="edgeStyle=orthogonalEdgeStyle;rounded=0;orthogonalLoop=1;jettySize=auto;html=1;" parent="1" source="d-VJ-QEy7T55_uepb2rt-64" target="d-VJ-QEy7T55_uepb2rt-63" edge="1">
          <mxGeometry relative="1" as="geometry" />
        </mxCell>
        <mxCell id="d-VJ-QEy7T55_uepb2rt-64" value="Requisição do governo" style="rhombus;whiteSpace=wrap;html=1;fillColor=#fff2cc;strokeColor=#d6b656;" parent="1" vertex="1">
          <mxGeometry x="504.5" y="974" width="80" height="80" as="geometry" />
        </mxCell>
        <mxCell id="d-VJ-QEy7T55_uepb2rt-68" value="" style="edgeStyle=orthogonalEdgeStyle;rounded=0;orthogonalLoop=1;jettySize=auto;html=1;" parent="1" source="d-VJ-QEy7T55_uepb2rt-67" target="d-VJ-QEy7T55_uepb2rt-64" edge="1">
          <mxGeometry relative="1" as="geometry" />
        </mxCell>
        <mxCell id="d-VJ-QEy7T55_uepb2rt-67" value="Treinar modelo" style="rounded=1;whiteSpace=wrap;html=1;" parent="1" vertex="1">
          <mxGeometry x="324.5" y="984" width="120" height="60" as="geometry" />
        </mxCell>
        <mxCell id="d-VJ-QEy7T55_uepb2rt-69" style="edgeStyle=orthogonalEdgeStyle;rounded=0;orthogonalLoop=1;jettySize=auto;html=1;entryX=0.409;entryY=0.017;entryDx=0;entryDy=0;entryPerimeter=0;" parent="1" source="d-VJ-QEy7T55_uepb2rt-64" target="d-VJ-QEy7T55_uepb2rt-67" edge="1">
          <mxGeometry relative="1" as="geometry">
            <Array as="points">
              <mxPoint x="544.5" y="964" />
              <mxPoint x="373.5" y="964" />
            </Array>
          </mxGeometry>
        </mxCell>
        <mxCell id="d-VJ-QEy7T55_uepb2rt-70" value="Não" style="text;html=1;align=center;verticalAlign=middle;whiteSpace=wrap;rounded=0;" parent="1" vertex="1">
          <mxGeometry x="424.5" y="934" width="60" height="30" as="geometry" />
        </mxCell>
        <mxCell id="d-VJ-QEy7T55_uepb2rt-72" value="" style="edgeStyle=orthogonalEdgeStyle;rounded=0;orthogonalLoop=1;jettySize=auto;html=1;" parent="1" source="d-VJ-QEy7T55_uepb2rt-71" target="d-VJ-QEy7T55_uepb2rt-67" edge="1">
          <mxGeometry relative="1" as="geometry" />
        </mxCell>
        <mxCell id="d-VJ-QEy7T55_uepb2rt-71" value="" style="ellipse;whiteSpace=wrap;html=1;aspect=fixed;fillColor=#d5e8d4;strokeColor=#82b366;" parent="1" vertex="1">
          <mxGeometry x="224.5" y="999" width="30" height="30" as="geometry" />
        </mxCell>
        <mxCell id="d-VJ-QEy7T55_uepb2rt-73" value="&lt;font style=&quot;font-size: 15px;&quot;&gt;Fluxo&lt;/font&gt;" style="text;html=1;align=center;verticalAlign=middle;whiteSpace=wrap;rounded=0;" parent="1" vertex="1">
          <mxGeometry x="514.5" y="884" width="60" height="30" as="geometry" />
        </mxCell>
        <mxCell id="d-VJ-QEy7T55_uepb2rt-74" value="Sim" style="text;html=1;align=center;verticalAlign=middle;whiteSpace=wrap;rounded=0;" parent="1" vertex="1">
          <mxGeometry x="574.5" y="984" width="60" height="30" as="geometry" />
        </mxCell>
        <mxCell id="d-VJ-QEy7T55_uepb2rt-82" style="edgeStyle=orthogonalEdgeStyle;rounded=0;orthogonalLoop=1;jettySize=auto;html=1;entryX=0.572;entryY=1.039;entryDx=0;entryDy=0;entryPerimeter=0;" parent="1" source="d-VJ-QEy7T55_uepb2rt-51" target="d-VJ-QEy7T55_uepb2rt-53" edge="1">
          <mxGeometry relative="1" as="geometry">
            <Array as="points">
              <mxPoint x="728" y="1661" />
              <mxPoint x="467" y="1661" />
            </Array>
          </mxGeometry>
        </mxCell>
        <mxCell id="iBNbjOJgGYLXGwrJgdYS-1" value="Aplicativo" style="swimlane;horizontal=0;whiteSpace=wrap;html=1;startSize=23;" parent="1" vertex="1">
          <mxGeometry x="1081" y="1577" width="870" height="201" as="geometry" />
        </mxCell>
        <mxCell id="iBNbjOJgGYLXGwrJgdYS-10" value="Compilar parâmetros" style="rounded=1;whiteSpace=wrap;html=1;" parent="iBNbjOJgGYLXGwrJgdYS-1" vertex="1">
          <mxGeometry x="324" y="70.5" width="120" height="60" as="geometry" />
        </mxCell>
        <mxCell id="iBNbjOJgGYLXGwrJgdYS-17" value="Informar rota de coleta" style="rounded=1;whiteSpace=wrap;html=1;" parent="iBNbjOJgGYLXGwrJgdYS-1" vertex="1">
          <mxGeometry x="550" y="70.5" width="120" height="60" as="geometry" />
        </mxCell>
        <mxCell id="d-VJ-QEy7T55_uepb2rt-20" value="Governo" style="swimlane;horizontal=0;whiteSpace=wrap;html=1;" parent="1" vertex="1">
          <mxGeometry x="1081" y="1778" width="870" height="200" as="geometry" />
        </mxCell>
        <mxCell id="d-VJ-QEy7T55_uepb2rt-24" value="" style="ellipse;whiteSpace=wrap;html=1;aspect=fixed;fillColor=#d5e8d4;strokeColor=#82b366;" parent="d-VJ-QEy7T55_uepb2rt-20" vertex="1">
          <mxGeometry x="365" y="85" width="30" height="30" as="geometry" />
        </mxCell>
        <mxCell id="iBNbjOJgGYLXGwrJgdYS-11" style="edgeStyle=orthogonalEdgeStyle;rounded=0;orthogonalLoop=1;jettySize=auto;html=1;entryX=0.5;entryY=1;entryDx=0;entryDy=0;" parent="1" source="iBNbjOJgGYLXGwrJgdYS-10" target="d-VJ-QEy7T55_uepb2rt-28" edge="1">
          <mxGeometry relative="1" as="geometry" />
        </mxCell>
        <mxCell id="iBNbjOJgGYLXGwrJgdYS-12" value="Waze" style="swimlane;horizontal=0;whiteSpace=wrap;html=1;" parent="1" vertex="1">
          <mxGeometry x="1081" y="1177" width="870" height="200" as="geometry" />
        </mxCell>
        <mxCell id="iBNbjOJgGYLXGwrJgdYS-13" value="Mapear rota" style="rounded=1;whiteSpace=wrap;html=1;" parent="iBNbjOJgGYLXGwrJgdYS-12" vertex="1">
          <mxGeometry x="90" y="70" width="120" height="60" as="geometry" />
        </mxCell>
        <mxCell id="iBNbjOJgGYLXGwrJgdYS-15" style="edgeStyle=orthogonalEdgeStyle;rounded=0;orthogonalLoop=1;jettySize=auto;html=1;entryX=0.5;entryY=1;entryDx=0;entryDy=0;" parent="1" source="d-VJ-QEy7T55_uepb2rt-28" target="iBNbjOJgGYLXGwrJgdYS-13" edge="1">
          <mxGeometry relative="1" as="geometry" />
        </mxCell>
        <mxCell id="iBNbjOJgGYLXGwrJgdYS-16" style="edgeStyle=orthogonalEdgeStyle;rounded=0;orthogonalLoop=1;jettySize=auto;html=1;entryX=0.5;entryY=1;entryDx=0;entryDy=0;" parent="1" source="iBNbjOJgGYLXGwrJgdYS-13" target="d-VJ-QEy7T55_uepb2rt-31" edge="1">
          <mxGeometry relative="1" as="geometry" />
        </mxCell>
        <mxCell id="HVkNpmRQjvonwfQjf_y9-6" style="edgeStyle=orthogonalEdgeStyle;rounded=0;orthogonalLoop=1;jettySize=auto;html=1;entryX=0.358;entryY=0.005;entryDx=0;entryDy=0;entryPerimeter=0;" parent="1" source="HVkNpmRQjvonwfQjf_y9-5" target="iBNbjOJgGYLXGwrJgdYS-17" edge="1">
          <mxGeometry relative="1" as="geometry">
            <Array as="points">
              <mxPoint x="1404" y="1488" />
              <mxPoint x="1674" y="1488" />
            </Array>
          </mxGeometry>
        </mxCell>
        <mxCell id="HVkNpmRQjvonwfQjf_y9-13" style="edgeStyle=orthogonalEdgeStyle;rounded=0;orthogonalLoop=1;jettySize=auto;html=1;" parent="1" source="iBNbjOJgGYLXGwrJgdYS-17" target="d-VJ-QEy7T55_uepb2rt-31" edge="1">
          <mxGeometry relative="1" as="geometry">
            <Array as="points">
              <mxPoint x="1741" y="1277" />
              <mxPoint x="1741" y="1018" />
              <mxPoint x="1231" y="1018" />
            </Array>
          </mxGeometry>
        </mxCell>
        <mxCell id="fbK9W6iJaRy3xWYXGoXf-5" style="edgeStyle=orthogonalEdgeStyle;rounded=0;orthogonalLoop=1;jettySize=auto;html=1;" parent="1" source="fbK9W6iJaRy3xWYXGoXf-2" target="d-VJ-QEy7T55_uepb2rt-77" edge="1">
          <mxGeometry relative="1" as="geometry">
            <Array as="points">
              <mxPoint x="599" y="1442" />
              <mxPoint x="458" y="1442" />
            </Array>
          </mxGeometry>
        </mxCell>
        <mxCell id="fbK9W6iJaRy3xWYXGoXf-6" value="Coerente" style="text;html=1;align=center;verticalAlign=middle;resizable=0;points=[];autosize=1;strokeColor=none;fillColor=none;" parent="1" vertex="1">
          <mxGeometry x="489" y="1415" width="67" height="26" as="geometry" />
        </mxCell>
        <mxCell id="fbK9W6iJaRy3xWYXGoXf-10" style="edgeStyle=orthogonalEdgeStyle;rounded=0;orthogonalLoop=1;jettySize=auto;html=1;entryX=0.5;entryY=1;entryDx=0;entryDy=0;" parent="1" source="fbK9W6iJaRy3xWYXGoXf-2" target="d-VJ-QEy7T55_uepb2rt-46" edge="1">
          <mxGeometry relative="1" as="geometry">
            <Array as="points">
              <mxPoint x="862" y="1531" />
              <mxPoint x="862" y="1781" />
              <mxPoint x="538" y="1781" />
            </Array>
          </mxGeometry>
        </mxCell>
        <mxCell id="Mr06SyDZ58Q6DUUmH8cc-7" value="Fluxo Principal" style="swimlane;horizontal=0;whiteSpace=wrap;html=1;" vertex="1" parent="1">
          <mxGeometry x="149.5" y="914" width="729" height="200" as="geometry" />
        </mxCell>
        <mxCell id="Mr06SyDZ58Q6DUUmH8cc-9" style="edgeStyle=orthogonalEdgeStyle;rounded=0;orthogonalLoop=1;jettySize=auto;html=1;" edge="1" parent="1" source="Mr06SyDZ58Q6DUUmH8cc-10">
          <mxGeometry relative="1" as="geometry">
            <mxPoint x="414" y="1861" as="targetPoint" />
          </mxGeometry>
        </mxCell>
        <mxCell id="Mr06SyDZ58Q6DUUmH8cc-10" value="Acessar o aplicativo (Governo)" style="rounded=1;whiteSpace=wrap;html=1;" vertex="1" parent="1">
          <mxGeometry x="204" y="1831" width="120" height="60" as="geometry" />
        </mxCell>
        <mxCell id="Mr06SyDZ58Q6DUUmH8cc-11" style="edgeStyle=orthogonalEdgeStyle;rounded=0;orthogonalLoop=1;jettySize=auto;html=1;" edge="1" parent="1" source="Mr06SyDZ58Q6DUUmH8cc-12" target="Mr06SyDZ58Q6DUUmH8cc-10">
          <mxGeometry relative="1" as="geometry" />
        </mxCell>
        <mxCell id="Mr06SyDZ58Q6DUUmH8cc-12" value="" style="ellipse;whiteSpace=wrap;html=1;aspect=fixed;fillColor=#d5e8d4;strokeColor=#82b366;" vertex="1" parent="1">
          <mxGeometry x="154" y="1846" width="30" height="30" as="geometry" />
        </mxCell>
        <mxCell id="Mr06SyDZ58Q6DUUmH8cc-23" style="edgeStyle=orthogonalEdgeStyle;rounded=0;orthogonalLoop=1;jettySize=auto;html=1;entryX=0;entryY=0.5;entryDx=0;entryDy=0;" edge="1" parent="1" source="Mr06SyDZ58Q6DUUmH8cc-13" target="Mr06SyDZ58Q6DUUmH8cc-22">
          <mxGeometry relative="1" as="geometry" />
        </mxCell>
        <mxCell id="Mr06SyDZ58Q6DUUmH8cc-13" value="Solicitar coleta" style="rounded=1;whiteSpace=wrap;html=1;" vertex="1" parent="1">
          <mxGeometry x="414" y="1831" width="120" height="60" as="geometry" />
        </mxCell>
        <mxCell id="Mr06SyDZ58Q6DUUmH8cc-14" value="Governo" style="swimlane;horizontal=0;whiteSpace=wrap;html=1;" vertex="1" parent="1">
          <mxGeometry x="88" y="1820" width="870" height="158" as="geometry" />
        </mxCell>
        <mxCell id="Mr06SyDZ58Q6DUUmH8cc-17" value="" style="ellipse;whiteSpace=wrap;html=1;aspect=fixed;fillColor=#f8cecc;strokeColor=#b85450;" vertex="1" parent="Mr06SyDZ58Q6DUUmH8cc-14">
          <mxGeometry x="724" y="26" width="40" height="40" as="geometry" />
        </mxCell>
        <mxCell id="Mr06SyDZ58Q6DUUmH8cc-24" style="edgeStyle=orthogonalEdgeStyle;rounded=0;orthogonalLoop=1;jettySize=auto;html=1;entryX=0;entryY=0.5;entryDx=0;entryDy=0;" edge="1" parent="Mr06SyDZ58Q6DUUmH8cc-14" source="Mr06SyDZ58Q6DUUmH8cc-22" target="Mr06SyDZ58Q6DUUmH8cc-17">
          <mxGeometry relative="1" as="geometry" />
        </mxCell>
        <mxCell id="Mr06SyDZ58Q6DUUmH8cc-22" value="?" style="rhombus;whiteSpace=wrap;html=1;fillColor=#fff2cc;strokeColor=#d6b656;" vertex="1" parent="Mr06SyDZ58Q6DUUmH8cc-14">
          <mxGeometry x="600" y="6" width="80" height="80" as="geometry" />
        </mxCell>
        <mxCell id="Mr06SyDZ58Q6DUUmH8cc-21" style="edgeStyle=orthogonalEdgeStyle;rounded=0;orthogonalLoop=1;jettySize=auto;html=1;" edge="1" parent="1" source="d-VJ-QEy7T55_uepb2rt-24" target="iBNbjOJgGYLXGwrJgdYS-10">
          <mxGeometry relative="1" as="geometry" />
        </mxCell>
        <mxCell id="Mr06SyDZ58Q6DUUmH8cc-26" value="Sim" style="text;html=1;align=center;verticalAlign=middle;resizable=0;points=[];autosize=1;strokeColor=none;fillColor=none;" vertex="1" parent="1">
          <mxGeometry x="771" y="1829" width="39" height="26" as="geometry" />
        </mxCell>
      </root>
    </mxGraphModel>
  </diagram>
  <diagram id="uuC1ExW2EnVE1ZP-EElV" name="ASIS">
    <mxGraphModel dx="1122" dy="1865" grid="0" gridSize="10" guides="1" tooltips="1" connect="1" arrows="1" fold="1" page="1" pageScale="1" pageWidth="827" pageHeight="1169" math="0" shadow="0">
      <root>
        <mxCell id="0" />
        <mxCell id="1" parent="0" />
        <mxCell id="wTCXj8QKER4XCNnipOte-1" value="Coletor" style="swimlane;horizontal=0;whiteSpace=wrap;html=1;" parent="1" vertex="1">
          <mxGeometry x="23" y="-440" width="740" height="200" as="geometry" />
        </mxCell>
        <mxCell id="wTCXj8QKER4XCNnipOte-2" style="edgeStyle=orthogonalEdgeStyle;rounded=0;orthogonalLoop=1;jettySize=auto;html=1;entryX=0;entryY=0.5;entryDx=0;entryDy=0;" parent="wTCXj8QKER4XCNnipOte-1" source="wTCXj8QKER4XCNnipOte-3" target="wTCXj8QKER4XCNnipOte-5" edge="1">
          <mxGeometry relative="1" as="geometry" />
        </mxCell>
        <mxCell id="wTCXj8QKER4XCNnipOte-3" value="Deslocar até a area de coleta" style="rounded=1;whiteSpace=wrap;html=1;" parent="wTCXj8QKER4XCNnipOte-1" vertex="1">
          <mxGeometry x="130" y="80" width="120" height="60" as="geometry" />
        </mxCell>
        <mxCell id="wTCXj8QKER4XCNnipOte-5" value="Realizar a coleta de lixo" style="rounded=1;whiteSpace=wrap;html=1;" parent="wTCXj8QKER4XCNnipOte-1" vertex="1">
          <mxGeometry x="320" y="80" width="120" height="60" as="geometry" />
        </mxCell>
        <mxCell id="wTCXj8QKER4XCNnipOte-7" value="Governo" style="swimlane;horizontal=0;whiteSpace=wrap;html=1;" parent="1" vertex="1">
          <mxGeometry x="23" y="-240" width="740" height="200" as="geometry" />
        </mxCell>
        <mxCell id="wTCXj8QKER4XCNnipOte-8" value="Enviar pontos de coleta de lixo" style="rounded=1;whiteSpace=wrap;html=1;" parent="wTCXj8QKER4XCNnipOte-7" vertex="1">
          <mxGeometry x="130" y="65" width="120" height="60" as="geometry" />
        </mxCell>
        <mxCell id="wTCXj8QKER4XCNnipOte-9" value="" style="edgeStyle=orthogonalEdgeStyle;rounded=0;orthogonalLoop=1;jettySize=auto;html=1;" parent="wTCXj8QKER4XCNnipOte-7" source="wTCXj8QKER4XCNnipOte-10" target="wTCXj8QKER4XCNnipOte-8" edge="1">
          <mxGeometry relative="1" as="geometry" />
        </mxCell>
        <mxCell id="wTCXj8QKER4XCNnipOte-10" value="" style="ellipse;whiteSpace=wrap;html=1;aspect=fixed;" parent="wTCXj8QKER4XCNnipOte-7" vertex="1">
          <mxGeometry x="50" y="80" width="30" height="30" as="geometry" />
        </mxCell>
        <mxCell id="wTCXj8QKER4XCNnipOte-11" value="Armazenar e atualizar dados de coleta de determinada região" style="rounded=1;whiteSpace=wrap;html=1;" parent="wTCXj8QKER4XCNnipOte-7" vertex="1">
          <mxGeometry x="490" y="65" width="120" height="60" as="geometry" />
        </mxCell>
        <mxCell id="wTCXj8QKER4XCNnipOte-12" style="edgeStyle=orthogonalEdgeStyle;rounded=0;orthogonalLoop=1;jettySize=auto;html=1;entryX=0.5;entryY=1;entryDx=0;entryDy=0;" parent="1" source="wTCXj8QKER4XCNnipOte-8" target="wTCXj8QKER4XCNnipOte-3" edge="1">
          <mxGeometry relative="1" as="geometry" />
        </mxCell>
        <mxCell id="wTCXj8QKER4XCNnipOte-13" style="edgeStyle=orthogonalEdgeStyle;rounded=0;orthogonalLoop=1;jettySize=auto;html=1;entryX=0.5;entryY=0;entryDx=0;entryDy=0;" parent="1" source="wTCXj8QKER4XCNnipOte-6" target="wTCXj8QKER4XCNnipOte-11" edge="1">
          <mxGeometry relative="1" as="geometry" />
        </mxCell>
        <mxCell id="mcsDHGBkHHWBhTmkvLJ1-1" value="Estação" style="swimlane;horizontal=0;whiteSpace=wrap;html=1;" vertex="1" parent="1">
          <mxGeometry x="23" y="-640" width="740" height="200" as="geometry" />
        </mxCell>
        <mxCell id="wTCXj8QKER4XCNnipOte-6" value="Enviar dados da coleta" style="rounded=1;whiteSpace=wrap;html=1;" parent="mcsDHGBkHHWBhTmkvLJ1-1" vertex="1">
          <mxGeometry x="490" y="60" width="120" height="60" as="geometry" />
        </mxCell>
        <mxCell id="wTCXj8QKER4XCNnipOte-4" style="edgeStyle=orthogonalEdgeStyle;rounded=0;orthogonalLoop=1;jettySize=auto;html=1;entryX=0;entryY=0.5;entryDx=0;entryDy=0;" parent="1" source="wTCXj8QKER4XCNnipOte-5" target="wTCXj8QKER4XCNnipOte-6" edge="1">
          <mxGeometry relative="1" as="geometry" />
        </mxCell>
      </root>
    </mxGraphModel>
  </diagram>
  <diagram id="k8DME1YZ3myZ3cDt4jJw" name="CASOSDEUSO">
    <mxGraphModel dx="2049" dy="1054" grid="1" gridSize="10" guides="1" tooltips="1" connect="1" arrows="1" fold="1" page="1" pageScale="1" pageWidth="827" pageHeight="1169" math="0" shadow="0">
      <root>
        <mxCell id="0" />
        <mxCell id="1" parent="0" />
        <mxCell id="48PQxRek5Wm6yvdUXE-k-1" value="Diagrama de Casos de Uso" style="swimlane;whiteSpace=wrap;html=1;" parent="1" vertex="1">
          <mxGeometry x="190" y="20" width="420" height="940" as="geometry" />
        </mxCell>
        <mxCell id="48PQxRek5Wm6yvdUXE-k-2" value="UC01:Acessar o Aplicativo (Governo&lt;span style=&quot;background-color: transparent; color: light-dark(rgb(0, 0, 0), rgb(255, 255, 255));&quot;&gt;)&lt;/span&gt;" style="rounded=1;whiteSpace=wrap;html=1;" parent="48PQxRek5Wm6yvdUXE-k-1" vertex="1">
          <mxGeometry x="150" y="110" width="120" height="60" as="geometry" />
        </mxCell>
        <mxCell id="48PQxRek5Wm6yvdUXE-k-4" value="UC02:Solicitar coleta" style="rounded=1;whiteSpace=wrap;html=1;" parent="48PQxRek5Wm6yvdUXE-k-1" vertex="1">
          <mxGeometry x="150" y="210" width="120" height="60" as="geometry" />
        </mxCell>
        <mxCell id="48PQxRek5Wm6yvdUXE-k-5" value="UC03:Mapear rota" style="rounded=1;whiteSpace=wrap;html=1;" parent="48PQxRek5Wm6yvdUXE-k-1" vertex="1">
          <mxGeometry x="150" y="300" width="120" height="60" as="geometry" />
        </mxCell>
        <mxCell id="48PQxRek5Wm6yvdUXE-k-6" value="UC04:Realizar coleta" style="rounded=1;whiteSpace=wrap;html=1;" parent="48PQxRek5Wm6yvdUXE-k-1" vertex="1">
          <mxGeometry x="150" y="390" width="120" height="60" as="geometry" />
        </mxCell>
        <mxCell id="48PQxRek5Wm6yvdUXE-k-7" value="UC05:Informar rota de coleta" style="rounded=1;whiteSpace=wrap;html=1;" parent="48PQxRek5Wm6yvdUXE-k-1" vertex="1">
          <mxGeometry x="150" y="480" width="120" height="60" as="geometry" />
        </mxCell>
        <mxCell id="48PQxRek5Wm6yvdUXE-k-8" value="UC06:Acessar o aplicativo ( usuário comum)" style="rounded=1;whiteSpace=wrap;html=1;" parent="48PQxRek5Wm6yvdUXE-k-1" vertex="1">
          <mxGeometry x="150" y="570" width="120" height="60" as="geometry" />
        </mxCell>
        <mxCell id="48PQxRek5Wm6yvdUXE-k-14" value="UC07:Enviar formulário" style="rounded=1;whiteSpace=wrap;html=1;" parent="48PQxRek5Wm6yvdUXE-k-1" vertex="1">
          <mxGeometry x="150" y="710" width="120" height="60" as="geometry" />
        </mxCell>
        <mxCell id="hLml2hToEAXO_lOhZdsG-9" style="edgeStyle=orthogonalEdgeStyle;rounded=0;orthogonalLoop=1;jettySize=auto;html=1;entryX=0;entryY=0.5;entryDx=0;entryDy=0;" edge="1" parent="1" source="48PQxRek5Wm6yvdUXE-k-9" target="48PQxRek5Wm6yvdUXE-k-2">
          <mxGeometry relative="1" as="geometry" />
        </mxCell>
        <mxCell id="hLml2hToEAXO_lOhZdsG-22" style="edgeStyle=orthogonalEdgeStyle;rounded=0;orthogonalLoop=1;jettySize=auto;html=1;entryX=0;entryY=0.5;entryDx=0;entryDy=0;" edge="1" parent="1" source="48PQxRek5Wm6yvdUXE-k-9" target="48PQxRek5Wm6yvdUXE-k-7">
          <mxGeometry relative="1" as="geometry" />
        </mxCell>
        <mxCell id="48PQxRek5Wm6yvdUXE-k-9" value="Governo" style="shape=umlActor;verticalLabelPosition=bottom;verticalAlign=top;html=1;outlineConnect=0;" parent="1" vertex="1">
          <mxGeometry x="90" y="320" width="30" height="60" as="geometry" />
        </mxCell>
        <mxCell id="hLml2hToEAXO_lOhZdsG-15" style="edgeStyle=orthogonalEdgeStyle;rounded=0;orthogonalLoop=1;jettySize=auto;html=1;entryX=0;entryY=0.5;entryDx=0;entryDy=0;" edge="1" parent="1" source="48PQxRek5Wm6yvdUXE-k-20" target="48PQxRek5Wm6yvdUXE-k-5">
          <mxGeometry relative="1" as="geometry">
            <Array as="points">
              <mxPoint x="270" y="480" />
              <mxPoint x="270" y="350" />
            </Array>
          </mxGeometry>
        </mxCell>
        <mxCell id="hLml2hToEAXO_lOhZdsG-16" style="edgeStyle=orthogonalEdgeStyle;rounded=0;orthogonalLoop=1;jettySize=auto;html=1;entryX=0;entryY=0.5;entryDx=0;entryDy=0;" edge="1" parent="1" source="48PQxRek5Wm6yvdUXE-k-20" target="48PQxRek5Wm6yvdUXE-k-6">
          <mxGeometry relative="1" as="geometry">
            <Array as="points">
              <mxPoint x="270" y="480" />
              <mxPoint x="270" y="440" />
            </Array>
          </mxGeometry>
        </mxCell>
        <mxCell id="48PQxRek5Wm6yvdUXE-k-20" value="Coletor" style="shape=umlActor;verticalLabelPosition=bottom;verticalAlign=top;html=1;outlineConnect=0;" parent="1" vertex="1">
          <mxGeometry x="90" y="450" width="30" height="60" as="geometry" />
        </mxCell>
        <mxCell id="hLml2hToEAXO_lOhZdsG-24" style="edgeStyle=orthogonalEdgeStyle;rounded=0;orthogonalLoop=1;jettySize=auto;html=1;entryX=1;entryY=0.5;entryDx=0;entryDy=0;" edge="1" parent="1" source="48PQxRek5Wm6yvdUXE-k-26" target="48PQxRek5Wm6yvdUXE-k-8">
          <mxGeometry relative="1" as="geometry">
            <Array as="points">
              <mxPoint x="600" y="730" />
              <mxPoint x="600" y="620" />
            </Array>
          </mxGeometry>
        </mxCell>
        <mxCell id="hLml2hToEAXO_lOhZdsG-26" style="edgeStyle=orthogonalEdgeStyle;rounded=0;orthogonalLoop=1;jettySize=auto;html=1;entryX=1;entryY=0.5;entryDx=0;entryDy=0;" edge="1" parent="1" source="48PQxRek5Wm6yvdUXE-k-26" target="48PQxRek5Wm6yvdUXE-k-14">
          <mxGeometry relative="1" as="geometry">
            <Array as="points">
              <mxPoint x="600" y="730" />
              <mxPoint x="600" y="760" />
            </Array>
          </mxGeometry>
        </mxCell>
        <mxCell id="48PQxRek5Wm6yvdUXE-k-26" value="Cidadão" style="shape=umlActor;verticalLabelPosition=bottom;verticalAlign=top;html=1;outlineConnect=0;" parent="1" vertex="1">
          <mxGeometry x="710" y="700" width="30" height="60" as="geometry" />
        </mxCell>
        <mxCell id="hLml2hToEAXO_lOhZdsG-8" style="edgeStyle=orthogonalEdgeStyle;rounded=0;orthogonalLoop=1;jettySize=auto;html=1;entryX=1;entryY=0.5;entryDx=0;entryDy=0;" edge="1" parent="1" source="hLml2hToEAXO_lOhZdsG-3" target="48PQxRek5Wm6yvdUXE-k-2">
          <mxGeometry relative="1" as="geometry" />
        </mxCell>
        <mxCell id="hLml2hToEAXO_lOhZdsG-11" style="edgeStyle=orthogonalEdgeStyle;rounded=0;orthogonalLoop=1;jettySize=auto;html=1;entryX=1;entryY=0.5;entryDx=0;entryDy=0;" edge="1" parent="1" source="hLml2hToEAXO_lOhZdsG-3" target="48PQxRek5Wm6yvdUXE-k-4">
          <mxGeometry relative="1" as="geometry" />
        </mxCell>
        <mxCell id="hLml2hToEAXO_lOhZdsG-18" style="edgeStyle=orthogonalEdgeStyle;rounded=0;orthogonalLoop=1;jettySize=auto;html=1;" edge="1" parent="1" source="hLml2hToEAXO_lOhZdsG-3">
          <mxGeometry relative="1" as="geometry">
            <mxPoint x="460" y="430" as="targetPoint" />
            <Array as="points">
              <mxPoint x="460" y="430" />
            </Array>
          </mxGeometry>
        </mxCell>
        <mxCell id="hLml2hToEAXO_lOhZdsG-21" style="edgeStyle=orthogonalEdgeStyle;rounded=0;orthogonalLoop=1;jettySize=auto;html=1;entryX=1;entryY=0.75;entryDx=0;entryDy=0;" edge="1" parent="1" source="hLml2hToEAXO_lOhZdsG-3" target="48PQxRek5Wm6yvdUXE-k-7">
          <mxGeometry relative="1" as="geometry">
            <Array as="points">
              <mxPoint x="585" y="420" />
              <mxPoint x="585" y="545" />
            </Array>
          </mxGeometry>
        </mxCell>
        <mxCell id="hLml2hToEAXO_lOhZdsG-25" style="edgeStyle=orthogonalEdgeStyle;rounded=0;orthogonalLoop=1;jettySize=auto;html=1;entryX=1;entryY=0.75;entryDx=0;entryDy=0;" edge="1" parent="1" source="hLml2hToEAXO_lOhZdsG-3" target="48PQxRek5Wm6yvdUXE-k-8">
          <mxGeometry relative="1" as="geometry">
            <mxPoint x="530" y="640" as="targetPoint" />
            <Array as="points">
              <mxPoint x="560" y="420" />
              <mxPoint x="560" y="635" />
            </Array>
          </mxGeometry>
        </mxCell>
        <mxCell id="hLml2hToEAXO_lOhZdsG-27" style="edgeStyle=orthogonalEdgeStyle;rounded=0;orthogonalLoop=1;jettySize=auto;html=1;entryX=1;entryY=0.25;entryDx=0;entryDy=0;" edge="1" parent="1" source="hLml2hToEAXO_lOhZdsG-3" target="48PQxRek5Wm6yvdUXE-k-14">
          <mxGeometry relative="1" as="geometry" />
        </mxCell>
        <mxCell id="hLml2hToEAXO_lOhZdsG-3" value="Aplicativo" style="shape=umlActor;verticalLabelPosition=bottom;verticalAlign=top;html=1;outlineConnect=0;" vertex="1" parent="1">
          <mxGeometry x="710" y="390" width="30" height="60" as="geometry" />
        </mxCell>
        <mxCell id="hLml2hToEAXO_lOhZdsG-10" style="edgeStyle=orthogonalEdgeStyle;rounded=0;orthogonalLoop=1;jettySize=auto;html=1;entryX=-0.008;entryY=0.383;entryDx=0;entryDy=0;entryPerimeter=0;" edge="1" parent="1" source="48PQxRek5Wm6yvdUXE-k-9" target="48PQxRek5Wm6yvdUXE-k-4">
          <mxGeometry relative="1" as="geometry" />
        </mxCell>
        <mxCell id="hLml2hToEAXO_lOhZdsG-23" style="edgeStyle=orthogonalEdgeStyle;rounded=0;orthogonalLoop=1;jettySize=auto;html=1;entryX=0;entryY=0.75;entryDx=0;entryDy=0;" edge="1" parent="1" source="hLml2hToEAXO_lOhZdsG-12" target="48PQxRek5Wm6yvdUXE-k-5">
          <mxGeometry relative="1" as="geometry">
            <Array as="points">
              <mxPoint x="250" y="620" />
              <mxPoint x="250" y="365" />
            </Array>
          </mxGeometry>
        </mxCell>
        <mxCell id="hLml2hToEAXO_lOhZdsG-12" value="Modelo" style="shape=umlActor;verticalLabelPosition=bottom;verticalAlign=top;html=1;outlineConnect=0;" vertex="1" parent="1">
          <mxGeometry x="90" y="590" width="30" height="60" as="geometry" />
        </mxCell>
        <mxCell id="hLml2hToEAXO_lOhZdsG-14" style="edgeStyle=orthogonalEdgeStyle;rounded=0;orthogonalLoop=1;jettySize=auto;html=1;entryX=1;entryY=0.5;entryDx=0;entryDy=0;" edge="1" parent="1" source="hLml2hToEAXO_lOhZdsG-13" target="48PQxRek5Wm6yvdUXE-k-5">
          <mxGeometry relative="1" as="geometry">
            <Array as="points">
              <mxPoint x="530" y="590" />
              <mxPoint x="530" y="350" />
            </Array>
          </mxGeometry>
        </mxCell>
        <mxCell id="hLml2hToEAXO_lOhZdsG-17" style="edgeStyle=orthogonalEdgeStyle;rounded=0;orthogonalLoop=1;jettySize=auto;html=1;entryX=1;entryY=0.5;entryDx=0;entryDy=0;" edge="1" parent="1" source="hLml2hToEAXO_lOhZdsG-13" target="48PQxRek5Wm6yvdUXE-k-6">
          <mxGeometry relative="1" as="geometry">
            <Array as="points">
              <mxPoint x="530" y="590" />
              <mxPoint x="530" y="440" />
            </Array>
          </mxGeometry>
        </mxCell>
        <mxCell id="hLml2hToEAXO_lOhZdsG-13" value="Waze" style="shape=umlActor;verticalLabelPosition=bottom;verticalAlign=top;html=1;outlineConnect=0;" vertex="1" parent="1">
          <mxGeometry x="710" y="560" width="30" height="60" as="geometry" />
        </mxCell>
        <mxCell id="hLml2hToEAXO_lOhZdsG-20" style="edgeStyle=orthogonalEdgeStyle;rounded=0;orthogonalLoop=1;jettySize=auto;html=1;entryX=1.028;entryY=0.361;entryDx=0;entryDy=0;entryPerimeter=0;" edge="1" parent="1" source="hLml2hToEAXO_lOhZdsG-13" target="48PQxRek5Wm6yvdUXE-k-7">
          <mxGeometry relative="1" as="geometry">
            <Array as="points">
              <mxPoint x="530" y="590" />
              <mxPoint x="530" y="522" />
            </Array>
          </mxGeometry>
        </mxCell>
      </root>
    </mxGraphModel>
  </diagram>
</mxfile>
